# xmcd CD database file
#
# Track frame offsets:
#	150
#	22953
#	31533
#	59690
#
# Disc length: 1039 seconds
#
# Revision: 1
# Processed by: cddbd v1.5.1PL0 Copyright (c) Steve Scherf et al.
# Submitted via: CDex 1.51
#
DISCID=26040d04
DTITLE=くるり - 男の子と女の子
DYEAR=2002
DGENRE=Rock
TTITLE0=男の子と女の子
TTITLE1=踊りませんか次の駅まで
TTITLE2=WORLD'S END SUPERNOVA -Break Beat Mix-
TTITLE3=ハローグッバイ
EXTD=YEAR: 2002
EXTT0=
EXTT1=
EXTT2=
EXTT3=
PLAYORDER=
